<svg id="Layer_1" data-name="Layer 1" xmlns="http://www.w3.org/2000/svg" viewBox="0 0 393.45 393.45"><defs><style>.cls-1{fill:#a5b4fc;}</style></defs><title>circle</title><path class="cls-1" d="M197.05,384.38a190.54,190.54,0,0,1-19.48-1A187.77,187.77,0,0,1,12.36,232a1,1,0,1,1,2-.38A185.68,185.68,0,0,0,313.91,340.67a1,1,0,0,1,1.27,1.56A186.26,186.26,0,0,1,197.05,384.38Z"/><path class="cls-1" d="M360.37,287.54a.94.94,0,0,1-.48-.13,1,1,0,0,1-.4-1.36A185.67,185.67,0,1,0,12,178.18a1,1,0,0,1-1.1.9A1,1,0,0,1,10,178,187.65,187.65,0,0,1,342.23,78.23a187.69,187.69,0,0,1,19,208.78A1,1,0,0,1,360.37,287.54Z"/><path class="cls-1" d="M86,61.18a.5.5,0,0,1-.4-.19L72.44,44.86a.51.51,0,0,1,.07-.72.52.52,0,0,1,.72.08L86.36,60.35a.51.51,0,0,1-.07.72A.56.56,0,0,1,86,61.18Z"/><path class="cls-1" d="M320.61,349.42a.49.49,0,0,1-.39-.19L307.09,333.1a.51.51,0,0,1,.07-.72.52.52,0,0,1,.72.08L321,348.59a.51.51,0,0,1-.07.72A.57.57,0,0,1,320.61,349.42Z"/><path class="cls-1" d="M74.53,71.35a.53.53,0,0,1-.37-.15L59.68,56.27a.5.5,0,0,1,0-.72.51.51,0,0,1,.72,0L74.9,70.48a.53.53,0,0,1,0,.73A.54.54,0,0,1,74.53,71.35Z"/><path class="cls-1" d="M333.41,338a.51.51,0,0,1-.37-.15L318.55,323a.52.52,0,1,1,.74-.72l14.48,14.93a.51.51,0,0,1,0,.72A.49.49,0,0,1,333.41,338Z"/><path class="cls-1" d="M64,82.48a.52.52,0,0,1-.33-.12L48,68.75a.5.5,0,0,1-.05-.72.52.52,0,0,1,.72,0l15.73,13.6a.52.52,0,0,1,0,.72A.5.5,0,0,1,64,82.48Z"/><path class="cls-1" d="M345.16,325.6a.55.55,0,0,1-.34-.13l-15.73-13.6a.52.52,0,0,1,0-.72.51.51,0,0,1,.72-.06l15.73,13.61a.5.5,0,0,1,.05.72A.49.49,0,0,1,345.16,325.6Z"/><path class="cls-1" d="M54.53,94.48a.53.53,0,0,1-.3-.09L37.37,82.2a.51.51,0,0,1,.6-.82L54.83,93.56a.51.51,0,0,1-.3.92Z"/><path class="cls-1" d="M355.78,312.17a.49.49,0,0,1-.3-.1l-16.86-12.18a.51.51,0,0,1,.6-.83l16.86,12.18a.51.51,0,0,1,.11.72A.48.48,0,0,1,355.78,312.17Z"/><path class="cls-1" d="M46.11,107.27a.5.5,0,0,1-.26-.08L28,96.53a.5.5,0,0,1-.18-.7.52.52,0,0,1,.7-.18l17.85,10.67a.51.51,0,0,1-.26,1Z"/><path class="cls-1" d="M365.19,297.87a.48.48,0,0,1-.26-.07l-17.85-10.67a.5.5,0,0,1-.18-.7.51.51,0,0,1,.7-.17l17.85,10.66a.51.51,0,0,1-.26.95Z"/><path class="cls-1" d="M38.84,120.74a.59.59,0,0,1-.22,0l-18.71-9.07a.51.51,0,1,1,.44-.92l18.72,9.07a.5.5,0,0,1,.23.68A.51.51,0,0,1,38.84,120.74Z"/><path class="cls-1" d="M373.32,282.8a.44.44,0,0,1-.22-.05l-18.72-9.07a.5.5,0,0,1-.23-.68.52.52,0,0,1,.68-.24l18.72,9.07a.51.51,0,0,1,.23.69A.51.51,0,0,1,373.32,282.8Z"/><path class="cls-1" d="M32.78,134.79a.39.39,0,0,1-.18,0l-19.44-7.4a.51.51,0,0,1,.36-.95L33,133.8a.51.51,0,0,1-.18,1Z"/><path class="cls-1" d="M380.11,267.09a.39.39,0,0,1-.18,0l-19.44-7.4a.51.51,0,0,1,.36-.95l19.44,7.4a.51.51,0,0,1-.18,1Z"/><path class="cls-1" d="M28,149.31a.34.34,0,0,1-.14,0l-20-5.68a.51.51,0,1,1,.28-1l20,5.68a.51.51,0,0,1,.35.63A.5.5,0,0,1,28,149.31Z"/><path class="cls-1" d="M385.5,250.84l-.14,0-20-5.68a.51.51,0,0,1-.35-.63.52.52,0,0,1,.63-.36l20,5.69a.51.51,0,0,1,.35.63A.51.51,0,0,1,385.5,250.84Z"/><path class="cls-1" d="M24.42,164.21h-.09L3.9,160.28a.51.51,0,0,1,.19-1l20.43,3.91a.51.51,0,0,1-.1,1Z"/><path class="cls-1" d="M389.45,234.18h-.09l-20.43-3.91a.52.52,0,0,1-.41-.6.52.52,0,0,1,.6-.41l20.43,3.92a.51.51,0,0,1-.1,1Z"/><path class="cls-1" d="M22.2,179.35h-.05L1.46,177.23a.53.53,0,0,1-.46-.57.51.51,0,0,1,.56-.45l20.69,2.12a.51.51,0,0,1-.05,1Z"/><path class="cls-1" d="M391.94,217.24h-.05l-20.69-2.12a.51.51,0,1,1,.1-1L392,216.22a.51.51,0,0,1-.05,1Z"/><path class="cls-1" d="M21.31,194.63h0L.5,194.32a.52.52,0,0,1-.5-.52.5.5,0,0,1,.51-.5h0l20.79.31a.51.51,0,0,1,.51.51A.53.53,0,0,1,21.31,194.63Z"/><path class="cls-1" d="M392.94,200.15h0l-20.79-.31a.51.51,0,0,1-.51-.51.53.53,0,0,1,.51-.51h0l20.8.31a.52.52,0,0,1,.5.52A.5.5,0,0,1,392.94,200.15Z"/><path class="cls-1" d="M1,211.43A.52.52,0,0,1,.49,211a.51.51,0,0,1,.48-.55l20.74-1.51a.53.53,0,0,1,.55.48.51.51,0,0,1-.48.54L1,211.43Z"/><path class="cls-1" d="M371.7,184.55a.52.52,0,0,1-.51-.48.51.51,0,0,1,.48-.54L392.41,182a.51.51,0,0,1,.55.47.52.52,0,0,1-.48.55l-20.74,1.5Z"/><path class="cls-1" d="M3,228.43a.51.51,0,0,1-.08-1l20.54-3.31a.51.51,0,0,1,.58.43.5.5,0,0,1-.42.58L3.07,228.43Z"/><path class="cls-1" d="M369.93,169.34a.51.51,0,0,1-.5-.43.5.5,0,0,1,.42-.58L390.38,165a.51.51,0,0,1,.17,1L370,169.34Z"/><path class="cls-1" d="M6.44,245.2a.51.51,0,0,1-.12-1l20.16-5.09a.51.51,0,0,1,.62.37.5.5,0,0,1-.37.62L6.57,245.19Z"/><path class="cls-1" d="M366.84,154.35a.49.49,0,0,1-.49-.38.5.5,0,0,1,.37-.62l20.16-5.09a.51.51,0,0,1,.62.37.51.51,0,0,1-.37.63L367,154.34Z"/><path class="cls-1" d="M11.35,261.6a.53.53,0,0,1-.49-.34.51.51,0,0,1,.32-.65l19.64-6.82a.53.53,0,0,1,.66.31.51.51,0,0,1-.32.65l-19.65,6.82A.45.45,0,0,1,11.35,261.6Z"/><path class="cls-1" d="M362.46,139.69a.5.5,0,0,1-.48-.34.5.5,0,0,1,.31-.65l19.65-6.82a.5.5,0,0,1,.65.31.51.51,0,0,1-.32.65l-19.64,6.82Z"/><path class="cls-1" d="M17.66,277.51a.5.5,0,0,1-.46-.3.51.51,0,0,1,.25-.67l19-8.51a.5.5,0,0,1,.67.26.51.51,0,0,1-.25.67l-19,8.51A.52.52,0,0,1,17.66,277.51Z"/><path class="cls-1" d="M356.81,125.46a.5.5,0,0,1-.46-.3.51.51,0,0,1,.25-.67l19-8.51a.51.51,0,0,1,.42.93l-19,8.51A.52.52,0,0,1,356.81,125.46Z"/><path class="cls-1" d="M25.34,292.82a.51.51,0,0,1-.25-1l18.17-10.13a.51.51,0,1,1,.49.89L25.59,292.75A.59.59,0,0,1,25.34,292.82Z"/><path class="cls-1" d="M350,111.79a.51.51,0,0,1-.45-.27.5.5,0,0,1,.2-.69l18.16-10.13a.51.51,0,1,1,.5.89L350.2,111.72A.59.59,0,0,1,350,111.79Z"/><path class="cls-1" d="M34.32,307.39a.52.52,0,0,1-.42-.22.5.5,0,0,1,.14-.71l17.21-11.68a.51.51,0,0,1,.71.14.51.51,0,0,1-.14.71L34.61,307.3A.52.52,0,0,1,34.32,307.39Z"/><path class="cls-1" d="M341.92,98.76a.51.51,0,0,1-.43-.23.52.52,0,0,1,.14-.71l17.21-11.67a.51.51,0,0,1,.71.13.5.5,0,0,1-.14.71L342.2,98.67A.49.49,0,0,1,341.92,98.76Z"/><path class="cls-1" d="M44.54,321.12a.53.53,0,0,1-.4-.18.52.52,0,0,1,.08-.72l16.13-13.13a.51.51,0,0,1,.72.07.52.52,0,0,1-.08.72L44.86,321A.48.48,0,0,1,44.54,321.12Z"/><path class="cls-1" d="M332.78,86.48a.54.54,0,0,1-.4-.19.52.52,0,0,1,.08-.72l16.13-13.13a.51.51,0,0,1,.72.07.52.52,0,0,1-.08.72L333.1,86.36A.49.49,0,0,1,332.78,86.48Z"/><path class="cls-1" d="M55.92,333.92a.49.49,0,0,1-.37-.16.51.51,0,0,1,0-.72l14.92-14.49a.52.52,0,1,1,.72.74L56.27,333.77A.49.49,0,0,1,55.92,333.92Z"/><path class="cls-1" d="M322.61,75a.51.51,0,0,1-.36-.88l14.93-14.48a.51.51,0,1,1,.71.73L323,74.9A.54.54,0,0,1,322.61,75Z"/><path class="cls-1" d="M68.37,345.67a.5.5,0,0,1-.34-.13.51.51,0,0,1,0-.72l13.6-15.73a.52.52,0,0,1,.72,0,.51.51,0,0,1,.06.72L68.75,345.49A.49.49,0,0,1,68.37,345.67Z"/><path class="cls-1" d="M311.48,64.53a.5.5,0,0,1-.33-.12.51.51,0,0,1-.06-.72L324.7,48a.5.5,0,0,1,.72-.05.51.51,0,0,1,.05.72l-13.6,15.73A.54.54,0,0,1,311.48,64.53Z"/><path class="cls-1" d="M81.79,356.29a.49.49,0,0,1-.3-.1.5.5,0,0,1-.11-.71l12.18-16.86a.51.51,0,0,1,.83.6L82.21,356.08A.51.51,0,0,1,81.79,356.29Z"/><path class="cls-1" d="M299.48,55a.47.47,0,0,1-.3-.1.51.51,0,0,1-.12-.71l12.19-16.86a.51.51,0,1,1,.82.6L299.89,54.83A.52.52,0,0,1,299.48,55Z"/><path class="cls-1" d="M96.09,365.7a.48.48,0,0,1-.26-.07.52.52,0,0,1-.18-.7l10.67-17.85a.5.5,0,0,1,.7-.18.51.51,0,0,1,.17.7L96.53,365.45A.52.52,0,0,1,96.09,365.7Z"/><path class="cls-1" d="M286.69,46.62a.48.48,0,0,1-.26-.07.52.52,0,0,1-.18-.7L296.92,28a.5.5,0,0,1,.7-.18.52.52,0,0,1,.18.7L287.13,46.37A.5.5,0,0,1,286.69,46.62Z"/><path class="cls-1" d="M111.16,373.83a.48.48,0,0,1-.23-.05.5.5,0,0,1-.23-.68l9.07-18.72a.5.5,0,0,1,.68-.23.51.51,0,0,1,.24.68l-9.07,18.71A.5.5,0,0,1,111.16,373.83Z"/><path class="cls-1" d="M273.23,39.35a.46.46,0,0,1-.23-.05.5.5,0,0,1-.23-.68l9.06-18.72a.52.52,0,0,1,.69-.23.5.5,0,0,1,.23.68l-9.06,18.72A.52.52,0,0,1,273.23,39.35Z"/><path class="cls-1" d="M126.87,380.62a.39.39,0,0,1-.18,0,.5.5,0,0,1-.29-.65l7.4-19.44a.51.51,0,0,1,.66-.29.5.5,0,0,1,.29.65l-7.4,19.44A.52.52,0,0,1,126.87,380.62Z"/><path class="cls-1" d="M259.17,33.29a.39.39,0,0,1-.18,0,.51.51,0,0,1-.29-.66l7.4-19.43a.53.53,0,0,1,.66-.3.51.51,0,0,1,.29.66L259.65,33A.52.52,0,0,1,259.17,33.29Z"/><path class="cls-1" d="M143.12,386l-.14,0a.51.51,0,0,1-.35-.63l5.68-20a.51.51,0,0,1,.63-.35.52.52,0,0,1,.36.63l-5.69,20A.51.51,0,0,1,143.12,386Z"/><path class="cls-1" d="M244.65,28.47l-.14,0a.52.52,0,0,1-.36-.63l5.69-20a.5.5,0,0,1,.63-.35.51.51,0,0,1,.35.63l-5.68,20A.52.52,0,0,1,244.65,28.47Z"/><path class="cls-1" d="M159.78,390h-.1a.5.5,0,0,1-.4-.59l3.91-20.43a.52.52,0,0,1,.6-.41.52.52,0,0,1,.41.6l-3.92,20.43A.51.51,0,0,1,159.78,390Z"/><path class="cls-1" d="M229.76,24.93h-.1a.52.52,0,0,1-.41-.6L233.17,3.9a.51.51,0,0,1,1,.19l-3.91,20.43A.51.51,0,0,1,229.76,24.93Z"/><path class="cls-1" d="M176.72,392.45h-.05a.51.51,0,0,1-.46-.56l2.12-20.69a.51.51,0,0,1,1,.1L177.23,392A.52.52,0,0,1,176.72,392.45Z"/><path class="cls-1" d="M214.61,22.71h-.05a.52.52,0,0,1-.46-.56l2.13-20.69a.52.52,0,0,1,.56-.46.51.51,0,0,1,.45.56l-2.12,20.69A.51.51,0,0,1,214.61,22.71Z"/><path class="cls-1" d="M193.81,393.45h0a.51.51,0,0,1-.5-.52l.31-20.79a.51.51,0,0,1,.51-.51h0a.52.52,0,0,1,.51.52l-.31,20.8A.51.51,0,0,1,193.81,393.45Z"/><path class="cls-1" d="M199.33,21.82h0a.52.52,0,0,1-.51-.52L199.13.5a.51.51,0,0,1,.51-.5h0a.51.51,0,0,1,.5.52l-.31,20.79A.51.51,0,0,1,199.33,21.82Z"/><path class="cls-1" d="M210.92,393a.51.51,0,0,1-.51-.48l-1.5-20.74a.51.51,0,0,1,.47-.55.53.53,0,0,1,.55.48l1.5,20.74a.51.51,0,0,1-.47.55Z"/><path class="cls-1" d="M184,22.26a.51.51,0,0,1-.5-.48L182,1A.51.51,0,1,1,183,1l1.51,20.74a.53.53,0,0,1-.48.55Z"/><path class="cls-1" d="M227.92,391a.51.51,0,0,1-.5-.43L224.11,370a.51.51,0,0,1,.43-.58.49.49,0,0,1,.58.42l3.31,20.53a.52.52,0,0,1-.42.59Z"/><path class="cls-1" d="M168.83,24a.51.51,0,0,1-.5-.43L165,3.07a.52.52,0,0,1,.43-.59.5.5,0,0,1,.58.42l3.31,20.54a.51.51,0,0,1-.43.58Z"/><path class="cls-1" d="M244.69,387.52a.5.5,0,0,1-.49-.39L239.11,367a.51.51,0,0,1,.37-.62.5.5,0,0,1,.62.37l5.09,20.16a.51.51,0,0,1-.37.62Z"/><path class="cls-1" d="M153.84,27.12a.51.51,0,0,1-.49-.39L148.26,6.57a.51.51,0,0,1,.37-.62.5.5,0,0,1,.62.37l5.09,20.16a.51.51,0,0,1-.37.62Z"/><path class="cls-1" d="M261.09,382.62a.51.51,0,0,1-.48-.35l-6.82-19.64a.53.53,0,0,1,.31-.66.51.51,0,0,1,.65.32l6.83,19.65a.52.52,0,0,1-.32.65A.51.51,0,0,1,261.09,382.62Z"/><path class="cls-1" d="M139.18,31.5a.5.5,0,0,1-.48-.34l-6.82-19.65a.5.5,0,0,1,.31-.65.51.51,0,0,1,.65.32l6.82,19.64a.51.51,0,0,1-.31.65A.51.51,0,0,1,139.18,31.5Z"/><path class="cls-1" d="M277,376.3a.5.5,0,0,1-.46-.3L268,357a.51.51,0,0,1,.93-.42l8.51,19a.5.5,0,0,1-.26.67A.38.38,0,0,1,277,376.3Z"/><path class="cls-1" d="M125,37.15a.5.5,0,0,1-.46-.3l-8.51-19a.51.51,0,0,1,.93-.42l8.51,19a.52.52,0,0,1-.47.72Z"/><path class="cls-1" d="M292.31,368.62a.5.5,0,0,1-.45-.26l-10.13-18.17a.51.51,0,1,1,.89-.49l10.13,18.16a.51.51,0,0,1-.2.7A.53.53,0,0,1,292.31,368.62Z"/><path class="cls-1" d="M111.27,44a.5.5,0,0,1-.44-.26L100.7,25.59a.51.51,0,1,1,.89-.5l10.13,18.16a.51.51,0,0,1-.2.7A.54.54,0,0,1,111.27,44Z"/><path class="cls-1" d="M306.88,359.64a.51.51,0,0,1-.43-.23L294.78,342.2a.51.51,0,0,1,.14-.71.52.52,0,0,1,.71.14l11.67,17.21a.51.51,0,0,1-.14.71A.47.47,0,0,1,306.88,359.64Z"/><path class="cls-1" d="M98.25,52a.5.5,0,0,1-.43-.22L86.15,34.61a.51.51,0,0,1,.13-.71A.5.5,0,0,1,87,34L98.67,51.25a.51.51,0,0,1-.14.71A.5.5,0,0,1,98.25,52Z"/><path class="cls-1" d="M117.09,99.54a.63.63,0,0,1-.5-.24l-9.44-11.59a.64.64,0,0,1,1-.81l9.44,11.6a.64.64,0,0,1-.49,1Z"/><path class="cls-1" d="M285.8,306.78a.64.64,0,0,1-.49-.23L275.87,295a.64.64,0,0,1,1-.8l9.44,11.59a.64.64,0,0,1-.1.9A.59.59,0,0,1,285.8,306.78Z"/><path class="cls-1" d="M108.87,106.85a.62.62,0,0,1-.46-.19L98,95.93a.64.64,0,0,1,.92-.89l10.41,10.73a.63.63,0,0,1,0,.9A.62.62,0,0,1,108.87,106.85Z"/><path class="cls-1" d="M295,298.6a.63.63,0,0,1-.46-.19l-10.41-10.73a.64.64,0,0,1,.91-.89l10.42,10.73a.63.63,0,0,1,0,.9A.62.62,0,0,1,295,298.6Z"/><path class="cls-1" d="M101.31,114.85a.68.68,0,0,1-.42-.15l-11.31-9.78a.64.64,0,0,1-.06-.9.64.64,0,0,1,.9-.07l11.31,9.78a.63.63,0,0,1,.06.9A.61.61,0,0,1,101.31,114.85Z"/><path class="cls-1" d="M303.45,289.65a.66.66,0,0,1-.42-.15l-11.31-9.78a.64.64,0,0,1,.84-1l11.31,9.78a.64.64,0,0,1,.06.9A.61.61,0,0,1,303.45,289.65Z"/><path class="cls-1" d="M94.48,123.48a.63.63,0,0,1-.37-.12L82,114.6a.63.63,0,0,1-.14-.89.64.64,0,0,1,.89-.14l12.12,8.76a.64.64,0,0,1-.38,1.15Z"/><path class="cls-1" d="M311.09,280a.68.68,0,0,1-.38-.12l-12.12-8.76a.64.64,0,1,1,.75-1l12.12,8.76a.64.64,0,0,1-.37,1.15Z"/><path class="cls-1" d="M88.43,132.67a.54.54,0,0,1-.32-.09l-12.84-7.66a.65.65,0,0,1-.22-.88.64.64,0,0,1,.87-.22l12.84,7.67a.63.63,0,0,1-.33,1.18Z"/><path class="cls-1" d="M317.85,269.72a.62.62,0,0,1-.32-.09L304.69,262a.64.64,0,0,1-.22-.88.64.64,0,0,1,.87-.22l12.84,7.67a.65.65,0,0,1,.22.88A.64.64,0,0,1,317.85,269.72Z"/><path class="cls-1" d="M83.21,142.36a.67.67,0,0,1-.28-.06l-13.46-6.52a.65.65,0,0,1-.29-.86.62.62,0,0,1,.85-.29l13.46,6.52a.63.63,0,0,1,.29.85A.62.62,0,0,1,83.21,142.36Z"/><path class="cls-1" d="M323.7,258.89a.58.58,0,0,1-.28-.07L310,252.3a.64.64,0,0,1,.56-1.15L324,257.67a.64.64,0,0,1-.28,1.22Z"/><path class="cls-1" d="M78.85,152.46a.59.59,0,0,1-.23,0l-14-5.32a.64.64,0,0,1-.37-.83.63.63,0,0,1,.82-.36l14,5.32a.63.63,0,0,1,.37.82A.62.62,0,0,1,78.85,152.46Z"/><path class="cls-1" d="M328.58,247.59a.64.64,0,0,1-.23-.05l-14-5.32a.63.63,0,0,1-.37-.82.64.64,0,0,1,.82-.37l14,5.32a.64.64,0,0,1,.37.83A.64.64,0,0,1,328.58,247.59Z"/><path class="cls-1" d="M75.38,162.91a.51.51,0,0,1-.17,0L60.82,158.8a.65.65,0,0,1-.44-.79.64.64,0,0,1,.79-.44l14.39,4.08a.64.64,0,0,1-.18,1.26Z"/><path class="cls-1" d="M332.45,235.9a.52.52,0,0,1-.17,0l-14.39-4.08a.65.65,0,0,1-.44-.79.64.64,0,0,1,.79-.44l14.39,4.08a.64.64,0,0,1-.18,1.25Z"/><path class="cls-1" d="M72.84,173.61h-.12L58,170.79a.64.64,0,0,1,.24-1.26L73,172.35a.64.64,0,0,1-.12,1.26Z"/><path class="cls-1" d="M335.3,223.93h-.12l-14.69-2.82a.64.64,0,1,1,.24-1.25l14.69,2.81a.64.64,0,0,1,.5.75A.63.63,0,0,1,335.3,223.93Z"/><path class="cls-1" d="M71.24,184.5h-.06L56.3,183a.64.64,0,0,1,.13-1.27l14.88,1.53a.64.64,0,0,1-.07,1.27Z"/><path class="cls-1" d="M337.09,211.75H337l-14.88-1.52a.64.64,0,1,1,.13-1.27l14.88,1.53a.64.64,0,0,1-.06,1.27Z"/><path class="cls-1" d="M70.6,195.49h0l-15-.23a.62.62,0,0,1-.63-.64.64.64,0,0,1,.64-.63h0l15,.22a.65.65,0,0,1,.63.65A.64.64,0,0,1,70.6,195.49Z"/><path class="cls-1" d="M337.8,199.46h0l-15-.22a.65.65,0,0,1-.63-.65.64.64,0,0,1,.64-.63h0l14.95.22a.64.64,0,0,1,0,1.28Z"/><path class="cls-1" d="M56,207.57a.64.64,0,0,1,0-1.28l14.92-1.08a.64.64,0,0,1,.68.59.65.65,0,0,1-.59.69l-14.91,1.08Z"/><path class="cls-1" d="M322.53,188.24a.63.63,0,0,1-.63-.59.64.64,0,0,1,.59-.69l14.91-1.08a.64.64,0,0,1,.1,1.28l-14.92,1.08Z"/><path class="cls-1" d="M57.42,219.79a.63.63,0,0,1-.1-1.26l14.77-2.38a.63.63,0,0,1,.73.53.64.64,0,0,1-.53.73l-14.76,2.38Z"/><path class="cls-1" d="M321.26,177.31a.63.63,0,0,1-.63-.54.64.64,0,0,1,.53-.73l14.76-2.38a.63.63,0,0,1,.73.53.62.62,0,0,1-.52.73l-14.77,2.38Z"/><path class="cls-1" d="M59.91,231.85a.63.63,0,0,1-.62-.48.64.64,0,0,1,.46-.78l14.5-3.65a.64.64,0,1,1,.32,1.24l-14.5,3.65Z"/><path class="cls-1" d="M319,166.53a.63.63,0,0,1-.62-.48.64.64,0,0,1,.46-.78l14.5-3.65a.64.64,0,0,1,.32,1.24l-14.5,3.65Z"/><path class="cls-1" d="M63.44,243.64a.64.64,0,0,1-.21-1.24l14.12-4.9a.64.64,0,1,1,.42,1.2l-14.12,4.91Z"/><path class="cls-1" d="M315.89,156a.66.66,0,0,1-.61-.43.65.65,0,0,1,.4-.81l14.12-4.91a.65.65,0,0,1,.82.4.64.64,0,0,1-.4.81L316.1,156A.52.52,0,0,1,315.89,156Z"/><path class="cls-1" d="M68,255.08a.63.63,0,0,1-.58-.37.64.64,0,0,1,.32-.85l13.64-6.11a.64.64,0,1,1,.52,1.16L68.24,255A.63.63,0,0,1,68,255.08Z"/><path class="cls-1" d="M311.83,145.76a.64.64,0,0,1-.26-1.22l13.64-6.12a.64.64,0,0,1,.52,1.17l-13.64,6.11A.62.62,0,0,1,311.83,145.76Z"/><path class="cls-1" d="M73.5,266.09a.65.65,0,0,1-.56-.33.64.64,0,0,1,.25-.87l13.06-7.28a.64.64,0,0,1,.86.24.63.63,0,0,1-.24.87L73.81,266A.61.61,0,0,1,73.5,266.09Z"/><path class="cls-1" d="M306.89,135.92a.61.61,0,0,1-.55-.32.63.63,0,0,1,.24-.87l13.06-7.28a.63.63,0,0,1,.87.24.64.64,0,0,1-.25.87l-13.06,7.28A.58.58,0,0,1,306.89,135.92Z"/><path class="cls-1" d="M80,276.56a.63.63,0,0,1-.36-1.16L92,267a.65.65,0,0,1,.89.17.64.64,0,0,1-.17.89l-12.38,8.39A.56.56,0,0,1,80,276.56Z"/><path class="cls-1" d="M301.12,126.56a.63.63,0,0,1-.53-.28.64.64,0,0,1,.17-.89L313.14,117a.62.62,0,0,1,.88.17.63.63,0,0,1-.17.88l-12.37,8.4A.69.69,0,0,1,301.12,126.56Z"/><path class="cls-1" d="M87.3,286.44a.64.64,0,0,1-.4-1.13l11.6-9.44a.64.64,0,0,1,.8,1L87.71,286.3A.68.68,0,0,1,87.3,286.44Z"/><path class="cls-1" d="M294.55,117.73a.65.65,0,0,1-.5-.24.64.64,0,0,1,.1-.9l11.59-9.44a.64.64,0,0,1,.81,1L295,117.58A.62.62,0,0,1,294.55,117.73Z"/><path class="cls-1" d="M95.48,295.64a.62.62,0,0,1-.45-.2.63.63,0,0,1,0-.9l10.73-10.41a.64.64,0,1,1,.89.91L95.93,295.46A.66.66,0,0,1,95.48,295.64Z"/><path class="cls-1" d="M287.24,109.5a.62.62,0,0,1-.46-.19.63.63,0,0,1,0-.9L297.52,98a.64.64,0,0,1,.89.92l-10.73,10.41A.62.62,0,0,1,287.24,109.5Z"/><path class="cls-1" d="M104.43,304.09a.61.61,0,0,1-.41-.16.64.64,0,0,1-.07-.9l9.78-11.31a.64.64,0,0,1,1,.84l-9.78,11.31A.68.68,0,0,1,104.43,304.09Z"/><path class="cls-1" d="M279.24,102a.61.61,0,0,1-.42-.16.64.64,0,0,1-.07-.9l9.78-11.31a.65.65,0,0,1,.9-.06.64.64,0,0,1,.07.9l-9.78,11.31A.67.67,0,0,1,279.24,102Z"/><path class="cls-1" d="M114.09,311.72a.61.61,0,0,1-.38-.12.64.64,0,0,1-.14-.89l8.76-12.12a.64.64,0,0,1,1,.75l-8.76,12.12A.63.63,0,0,1,114.09,311.72Z"/><path class="cls-1" d="M270.61,95.12a.68.68,0,0,1-.38-.12.64.64,0,0,1-.14-.89L278.85,82a.63.63,0,0,1,.89-.14.64.64,0,0,1,.14.89l-8.76,12.12A.63.63,0,0,1,270.61,95.12Z"/><path class="cls-1" d="M124.37,318.49a.66.66,0,0,1-.33-.09.64.64,0,0,1-.22-.87l7.67-12.84a.64.64,0,0,1,.88-.22.64.64,0,0,1,.22.87l-7.67,12.84A.64.64,0,0,1,124.37,318.49Z"/><path class="cls-1" d="M261.41,89.07a.62.62,0,0,1-.32-.09.63.63,0,0,1-.23-.87l7.67-12.84a.64.64,0,0,1,1.1.65L262,88.76A.64.64,0,0,1,261.41,89.07Z"/><path class="cls-1" d="M135.2,324.34a.58.58,0,0,1-.28-.07.63.63,0,0,1-.29-.85L141.15,310a.64.64,0,0,1,1.15.56L135.78,324A.67.67,0,0,1,135.2,324.34Z"/><path class="cls-1" d="M251.73,83.85a.72.72,0,0,1-.28-.07.64.64,0,0,1-.3-.85l6.52-13.46a.64.64,0,0,1,1.15.56L252.3,83.48A.63.63,0,0,1,251.73,83.85Z"/><path class="cls-1" d="M146.5,329.22a.68.68,0,0,1-.23-.05.63.63,0,0,1-.36-.82l5.32-14a.64.64,0,1,1,1.19.45l-5.32,14A.64.64,0,0,1,146.5,329.22Z"/><path class="cls-1" d="M241.63,79.48a.59.59,0,0,1-.23,0,.63.63,0,0,1-.37-.82l5.32-14a.64.64,0,0,1,.83-.36.62.62,0,0,1,.36.82l-5.32,14A.62.62,0,0,1,241.63,79.48Z"/><path class="cls-1" d="M158.18,333.09l-.17,0a.64.64,0,0,1-.44-.79l4.08-14.39a.65.65,0,0,1,.79-.44.64.64,0,0,1,.44.79l-4.08,14.39A.64.64,0,0,1,158.18,333.09Z"/><path class="cls-1" d="M231.18,76a.51.51,0,0,1-.17,0,.62.62,0,0,1-.44-.78l4.08-14.39a.64.64,0,0,1,1.23.35L231.8,75.55A.64.64,0,0,1,231.18,76Z"/><path class="cls-1" d="M170.16,335.93H170a.64.64,0,0,1-.51-.74l2.82-14.69a.65.65,0,0,1,.75-.51.64.64,0,0,1,.5.75l-2.81,14.69A.64.64,0,0,1,170.16,335.93Z"/><path class="cls-1" d="M220.48,73.48h-.13a.64.64,0,0,1-.5-.75L222.66,58a.64.64,0,0,1,.75-.5.64.64,0,0,1,.51.74L221.1,73A.65.65,0,0,1,220.48,73.48Z"/><path class="cls-1" d="M182.34,337.72h-.07a.63.63,0,0,1-.56-.7l1.52-14.88a.64.64,0,1,1,1.27.13L183,337.15A.63.63,0,0,1,182.34,337.72Z"/><path class="cls-1" d="M209.59,71.88h-.07a.65.65,0,0,1-.57-.7l1.53-14.88a.63.63,0,0,1,.7-.57.65.65,0,0,1,.57.7l-1.53,14.88A.64.64,0,0,1,209.59,71.88Z"/><path class="cls-1" d="M194.63,338.44h0a.63.63,0,0,1-.63-.65l.22-15a.64.64,0,0,1,.64-.63h0a.65.65,0,0,1,.63.65l-.23,14.95A.63.63,0,0,1,194.63,338.44Z"/><path class="cls-1" d="M198.6,71.24h0a.65.65,0,0,1-.63-.65l.23-15a.63.63,0,0,1,.63-.63h0a.63.63,0,0,1,.63.65l-.22,15A.64.64,0,0,1,198.6,71.24Z"/><path class="cls-1" d="M206.93,338.09a.65.65,0,0,1-.64-.59l-1.08-14.92a.64.64,0,0,1,1.28-.09l1.08,14.91a.65.65,0,0,1-.59.69Z"/><path class="cls-1" d="M187.6,71.55A.64.64,0,0,1,187,71l-1.08-14.91a.64.64,0,1,1,1.28-.1l1.08,14.92a.64.64,0,0,1-.59.68Z"/><path class="cls-1" d="M219.16,336.66a.63.63,0,0,1-.63-.53l-2.38-14.77a.64.64,0,1,1,1.26-.2l2.38,14.76a.64.64,0,0,1-.53.73Z"/><path class="cls-1" d="M176.67,72.83a.64.64,0,0,1-.63-.54l-2.38-14.76a.65.65,0,0,1,.53-.74.64.64,0,0,1,.73.53l2.38,14.77a.64.64,0,0,1-.53.73Z"/><path class="cls-1" d="M231.21,334.18a.66.66,0,0,1-.62-.48l-3.65-14.5a.64.64,0,0,1,1.24-.32l3.65,14.5a.64.64,0,0,1-.46.78Z"/><path class="cls-1" d="M165.89,75.05a.65.65,0,0,1-.62-.48l-3.65-14.5a.64.64,0,0,1,.46-.78.65.65,0,0,1,.78.46l3.65,14.5a.64.64,0,0,1-.46.78Z"/><path class="cls-1" d="M243,330.65a.63.63,0,0,1-.6-.43l-4.9-14.12a.64.64,0,1,1,1.2-.42l4.91,14.12a.65.65,0,0,1-.4.82Z"/><path class="cls-1" d="M155.35,78.2a.63.63,0,0,1-.6-.43l-4.91-14.12a.65.65,0,0,1,.4-.82.64.64,0,0,1,.81.4L156,77.35a.64.64,0,0,1-.39.82A.76.76,0,0,1,155.35,78.2Z"/><path class="cls-1" d="M254.45,326.11a.64.64,0,0,1-.59-.38l-6.11-13.64a.63.63,0,0,1,.32-.84.62.62,0,0,1,.84.32L255,325.21a.64.64,0,0,1-.32.84A.65.65,0,0,1,254.45,326.11Z"/><path class="cls-1" d="M145.12,82.26a.63.63,0,0,1-.58-.38l-6.12-13.64a.64.64,0,0,1,1.17-.52l6.11,13.64a.63.63,0,0,1-.32.84A.58.58,0,0,1,145.12,82.26Z"/><path class="cls-1" d="M265.45,320.59a.65.65,0,0,1-.56-.33l-7.28-13.06a.64.64,0,0,1,1.11-.62L266,319.64a.64.64,0,0,1-.25.87A.71.71,0,0,1,265.45,320.59Z"/><path class="cls-1" d="M135.29,87.2a.64.64,0,0,1-.56-.33l-7.28-13.06a.63.63,0,0,1,.24-.87.64.64,0,0,1,.87.25l7.28,13.06a.63.63,0,0,1-.24.86A.61.61,0,0,1,135.29,87.2Z"/><path class="cls-1" d="M275.93,314.13a.63.63,0,0,1-.53-.28L267,301.48a.64.64,0,0,1,1.06-.72l8.39,12.38a.63.63,0,0,1-.17.88A.66.66,0,0,1,275.93,314.13Z"/><path class="cls-1" d="M125.92,93a.63.63,0,0,1-.53-.28L117,80.31a.63.63,0,1,1,1-.71L126.45,92a.65.65,0,0,1-.17.89A.69.69,0,0,1,125.92,93Z"/></svg>